# ProBuilder 5.2.3
# https://unity3d.com/unity/features/worldbuilding/probuilder
# 12/20/2024 3:43:07 PM

mtllib ./Cone_area.mtl
o Cone area

g PolyShape (1)
v -4.948625E-09 0.2911805 2.348234E-08
v 3 0.2911805 -4
v 2 0.2911805 -4.5
v 1 0.2911809 -4.75
v -0.004375075 0.2911809 -4.850668
v -1 0.2911809 -4.75
v -2 0.2911809 -4.5
v -3 0.29118 -4
v -3 0 -4
v -2 9.536743E-07 -4.5
v 0 4.768372E-07 0
v -1 9.536743E-07 -4.75
v -0.00437507 9.536743E-07 -4.850668
v 1 9.536743E-07 -4.75
v 2 4.768372E-07 -4.5
v 3 4.768372E-07 -4

vt -8.294222E-15 -3.898092E-14
vt -3 -4
vt -2 -4.5
vt -1 -4.75
vt 0.00437507 -4.850668
vt 1 -4.75
vt 2 -4.5
vt 3 -4
vt -0.00437507 -4.850668
vt 0.8944272 0
vt -0.2236068 9.536743E-07
vt 0.8944272 0.29118
vt -0.2236068 0.2911809
vt -5 -7.105427E-15
vt 1.581669E-08 0.2911805
vt -5 0.29118
vt 0.8488747 9.536743E-07
vt -0.1819017 9.536743E-07
vt 0.8488747 0.2911809
vt -0.1819017 0.2911809
vt 0.5170872 9.536743E-07
vt -0.4836141 9.536743E-07
vt 0.5170872 0.2911809
vt -0.4836141 0.2911809
vt 0.4881115 9.452075E-07
vt -0.521296 9.452075E-07
vt 0.4881115 0.2911809
vt -0.521296 0.2911809
vt 0.1819017 9.536743E-07
vt -0.8488747 4.768372E-07
vt 0.1819017 0.2911809
vt -0.8488747 0.2911805
vt 0.2236068 4.768372E-07
vt -0.8944272 4.768372E-07
vt 0.2236068 0.2911805
vt -0.8944272 0.2911805
vt 5 4.768372E-07
vt 5 0.2911805

vn -4.730834E-08 1 1.526996E-07
vn 7.369301E-07 -1 -4.334883E-07
vn -0.4472136 0 -0.8944272
vn -0.8 -6.198331E-08 0.6
vn -0.8 0 0.6
vn -0.2425356 0 -0.9701425
vn -0.1005979 0 -0.9949272
vn 0.09973022 1.754398E-09 -0.9950145
vn 0.2425356 0 -0.9701425
vn 0.4472136 0 -0.8944272
vn 0.8 0 0.6
vn 0.8 -1.73956E-08 0.6

usemtl Lit
f 1/1/1 7/7/1 8/8/1
f 1/1/1 6/6/1 7/7/1
f 1/1/1 5/5/1 6/6/1
f 1/1/1 4/4/1 5/5/1
f 3/3/1 4/4/1 1/1/1
f 2/2/1 3/3/1 1/1/1
f 11/1/2 15/7/2 16/8/2
f 11/1/2 14/6/2 15/7/2
f 13/9/2 14/6/2 11/1/2
f 12/4/2 13/9/2 11/1/2
f 10/3/2 12/4/2 11/1/2
f 9/2/2 10/3/2 11/1/2
f 7/13/3 10/11/3 9/10/3
f 9/10/3 8/12/3 7/13/3
f 8/16/5 9/14/4 11/1/4
f 11/1/4 1/15/4 8/16/5
f 6/20/6 12/18/6 10/17/6
f 10/17/6 7/19/6 6/20/6
f 5/24/7 13/22/7 12/21/7
f 12/21/7 6/23/7 5/24/7
f 4/28/8 14/26/8 13/25/8
f 13/25/8 5/27/8 4/28/8
f 3/32/9 15/30/9 14/29/9
f 14/29/9 4/31/9 3/32/9
f 2/36/10 16/34/10 15/33/10
f 15/33/10 3/35/10 2/36/10
f 1/15/12 11/1/12 16/37/11
f 16/37/11 2/38/12 1/15/12

